<?xml version="1.0" standalone="no"?>
<!DOCTYPE svg PUBLIC "-//W3C//DTD SVG 20010904//EN"
 "http://www.w3.org/TR/2001/REC-SVG-20010904/DTD/svg10.dtd">
<svg version="1.0" xmlns="http://www.w3.org/2000/svg"
 width="500.000000pt" height="400.000000pt" viewBox="0 0 500.000000 400.000000"
 preserveAspectRatio="xMidYMid meet">

<g transform="translate(0.000000,400.000000) scale(0.100000,-0.100000)"
fill="#000000" stroke="none">
<path d="M4337 3833 c-4 -3 -7 -48 -7 -100 l0 -93 100 0 100 0 0 100 0 100
-93 0 c-52 0 -97 -3 -100 -7z"/>
<path d="M1020 2541 l0 -1120 53 -23 c204 -87 461 -229 681 -377 87 -58 168
-112 180 -120 11 -8 5 3 -15 25 -208 231 -380 395 -586 561 l-143 114 0 935
c0 538 4 934 9 934 5 0 61 -18 124 -40 209 -72 395 -163 577 -282 l75 -49 -45
42 c-142 132 -329 263 -510 357 -109 57 -313 143 -372 157 l-28 7 0 -1121z"/>
<path d="M3210 3625 c-222 -80 -493 -234 -685 -390 -138 -112 -155 -137 -45
-66 166 108 400 219 581 276 44 14 82 25 85 25 2 0 4 -422 4 -939 l0 -939 -76
-57 c-186 -140 -541 -473 -644 -605 l-35 -45 60 44 c205 149 438 286 699 411
l176 85 0 1118 c0 887 -3 1117 -12 1117 -7 -1 -56 -16 -108 -35z"/>
<path d="M4590 3459 l0 -120 -51 -55 -52 -54 -218 0 -219 0 0 -265 0 -265 263
2 262 3 3 220 2 220 47 47 47 47 125 3 126 3 3 168 2 167 -170 0 -170 0 0
-121z"/>
<path d="M680 2147 l0 -1124 163 -6 c177 -7 356 -31 542 -72 115 -26 403 -117
513 -163 28 -12 52 -19 52 -17 0 15 -236 158 -365 221 -212 103 -470 184 -672
210 l-53 7 0 1033 0 1034 -90 0 -90 0 0 -1123z"/>
<path d="M3490 2237 l0 -1034 -87 -13 c-303 -45 -633 -173 -901 -350 -67 -44
-122 -82 -122 -84 0 -2 47 16 105 40 325 134 756 224 1078 224 l97 0 0 1125 0
1125 -85 0 -85 0 0 -1033z"/>
<path d="M228 2926 c-74 -26 -123 -75 -147 -145 -14 -44 -16 -1918 -1 -1971
13 -47 63 -106 113 -133 l42 -22 800 -2 800 -2 -90 35 c-226 89 -546 161 -820
184 -66 5 -234 10 -372 10 l-253 0 0 915 0 915 120 0 120 0 0 115 0 115 -137
0 c-89 -1 -151 -6 -175 -14z"/>
<path d="M4050 1670 l0 -790 -249 0 c-376 0 -594 -23 -869 -90 -111 -27 -369
-111 -402 -130 -9 -6 296 -9 785 -7 l800 2 47 28 c26 15 57 41 69 58 49 69 49
67 49 921 l0 798 -115 0 -115 0 0 -790z"/>
<path d="M2026 487 c-11 -8 -20 -31 -23 -60 l-6 -47 -229 0 -230 0 -29 -29
c-48 -49 -38 -146 20 -176 26 -13 110 -15 650 -15 l619 0 31 26 c28 23 31 32
31 79 0 112 -7 115 -295 115 l-225 0 0 43 c0 71 -14 77 -166 77 -92 0 -135 -4
-148 -13z"/>
</g>
</svg>
